<?xml version="1.0" encoding="utf-8"?>
<!-- Generator: Adobe Illustrator 17.1.0, SVG Export Plug-In . SVG Version: 6.00 Build 0)  -->
<!DOCTYPE svg PUBLIC "-//W3C//DTD SVG 1.1//EN" "http://www.w3.org/Graphics/SVG/1.1/DTD/svg11.dtd">
<svg version="1.1" id="Layer_1" xmlns="http://www.w3.org/2000/svg" xmlns:xlink="http://www.w3.org/1999/xlink" x="0px" y="0px"
	 viewBox="0 0 225 41.9" enable-background="new 0 0 225 41.9" xml:space="preserve">
<g>
	<g>
		<g>
			<path fill="#0B3554" d="M6.8,7.2v15.4H4.9V7.2H0V5.5h11.7v1.6H6.8z"/>
			<path fill="#0B3554" d="M30.8,22.6v-7.8h-8.1v7.8h-1.8V5.5h1.8v7.6h8.1V5.5h1.8v17.1H30.8z"/>
			<path fill="#0B3554" d="M43.6,22.6V5.5h1.8v17.1H43.6z"/>
			<path fill="#0B3554" d="M67.2,22.6L58.2,8.9v13.7h-1.8V5.5h1.7l9.1,13.6V5.5h1.8v17.1H67.2z"/>
			<path fill="#0B3554" d="M90.5,22.6l-5.2-9.1l-3.6,4.3v4.8h-1.8V5.5h1.8v9.8l8-9.8h2.2l-5.4,6.6l6.1,10.5H90.5z"/>
			<path fill="#0B3554" d="M111.7,20.9c-1.2,1.2-2.8,1.7-4.6,1.7h-6.3V5.5h6.3c1.8,0,3.4,0.5,4.6,1.7c2,2,1.8,4.2,1.8,6.9
				C113.4,16.8,113.7,18.9,111.7,20.9z M108.8,10.2c-0.4-0.6-1-1-2-1h-1.8v9.6h1.8c1.1,0,1.6-0.4,2-1c0.3-0.5,0.5-0.9,0.5-3.8
				C109.2,11.2,109.1,10.7,108.8,10.2z"/>
			<path fill="#0B3554" d="M131.6,22.6l-0.8-2.5h-5.3l-0.8,2.5h-4.4l6.2-17.1h3.2l6.2,17.1H131.6z M128.3,12l-1.5,4.6h3L128.3,12z"
				/>
			<path fill="#0B3554" d="M149.7,9.3v13.3h-4.2V9.3h-4.2V5.5h12.6v3.7H149.7z"/>
			<path fill="#0B3554" d="M170.4,22.6l-0.8-2.5h-5.3l-0.8,2.5h-4.4l6.2-17.1h3.2l6.2,17.1H170.4z M167.1,12l-1.5,4.6h3L167.1,12z"
				/>
		</g>
		<g>
			<path fill="#0B3554" d="M108.7,36.5h-0.9l-1.9-6.8l-1.9,6.8h-0.9l-2.2-8.5h1l1.7,6.9l1.9-6.9h0.8l1.9,6.9l1.7-6.9h1L108.7,36.5z"
				/>
			<path fill="#0B3554" d="M125.4,35.6c-0.6,0.6-1.3,0.9-2.2,0.9c-0.9,0-1.6-0.3-2.2-0.9c-0.8-0.8-0.8-1.6-0.8-3.5
				c0-1.8,0-2.7,0.8-3.5c0.6-0.6,1.3-0.9,2.2-0.9c0.9,0,1.6,0.3,2.2,0.9c0.8,0.8,0.8,1.6,0.8,3.5C126.2,34,126.2,34.8,125.4,35.6z
				 M124.7,29.3c-0.4-0.4-0.9-0.6-1.5-0.6c-0.6,0-1.1,0.2-1.5,0.6c-0.5,0.6-0.6,1.1-0.6,2.9c0,1.8,0.1,2.4,0.6,2.9
				c0.4,0.4,0.9,0.6,1.5,0.6c0.6,0,1.1-0.2,1.5-0.6c0.5-0.5,0.6-1.1,0.6-2.9C125.3,30.4,125.3,29.8,124.7,29.3z"/>
			<path fill="#0B3554" d="M141.7,36.5l-1.9-3.8h-2.1v3.8h-0.9v-8.5h3.3c1.5,0,2.5,0.9,2.5,2.4c0,1.2-0.8,2.1-1.9,2.3l2,3.9H141.7z
				 M140,28.7h-2.3v3.1h2.3c1,0,1.7-0.5,1.7-1.6C141.7,29.3,141,28.7,140,28.7z"/>
			<path fill="#0B3554" d="M158.4,36.5l-2.6-4.5l-1.8,2.2v2.4h-0.9v-8.5h0.9v4.9l4-4.9h1.1l-2.7,3.3l3.1,5.2H158.4z"/>
			<path fill="#0B3554" d="M171.4,36.5c-1.3,0-2.1-0.3-2.9-1.1l0.6-0.6c0.7,0.7,1.4,0.9,2.3,0.9c1.2,0,2-0.6,2-1.6
				c0-0.4-0.1-0.8-0.4-1.1c-0.3-0.2-0.5-0.3-1.1-0.4l-1-0.2c-0.7-0.1-1.2-0.3-1.6-0.6c-0.4-0.4-0.6-0.9-0.6-1.6c0-1.5,1-2.4,2.7-2.4
				c1.1,0,1.8,0.3,2.5,0.9l-0.6,0.6c-0.5-0.5-1.1-0.7-2-0.7c-1.1,0-1.8,0.6-1.8,1.6c0,0.4,0.1,0.8,0.4,1c0.3,0.2,0.7,0.4,1.2,0.5
				l0.9,0.1c0.8,0.1,1.2,0.3,1.6,0.6c0.5,0.4,0.7,1,0.7,1.7C174.4,35.6,173.2,36.5,171.4,36.5z"/>
		</g>
	</g>
	<path fill="#0B3554" d="M224.9,24.7c-0.3-1.9-0.9-3.7-1.9-5.2c-0.1-0.1-0.2-0.3-0.3-0.4L212,2.4l-10.7,16.7
		c-0.1,0.1-0.2,0.3-0.3,0.4c-1,1.5-1.7,3.3-1.9,5.2c-0.1,0.6-0.1,1.1-0.1,1.7c0,7.2,5.8,13,13,13c7.2,0,13-5.8,13-13
		C225,25.9,224.9,25.3,224.9,24.7z M216.1,33h-8.3v-2.3h8.3V33z M216.1,28.9h-8.3v-2.3h8.3V28.9z M216.1,20.8h-3v3h-2.3v-3h-3v-2.3
		h3v-3h2.3v3h3V20.8z"/>
	<rect x="187.1" y="0" fill="#0B3554" width="0.9" height="41.9"/>
</g>
</svg>
