<?xml version="1.0" encoding="utf-8"?>
<!-- Generator: Adobe Illustrator 17.1.0, SVG Export Plug-In . SVG Version: 6.00 Build 0)  -->
<!DOCTYPE svg PUBLIC "-//W3C//DTD SVG 1.1//EN" "http://www.w3.org/Graphics/SVG/1.1/DTD/svg11.dtd">
<svg version="1.1" id="Layer_1" xmlns="http://www.w3.org/2000/svg" xmlns:xlink="http://www.w3.org/1999/xlink" x="0px" y="0px"
	 viewBox="0 0 46.2 65.7" enable-background="new 0 0 46.2 65.7" xml:space="preserve">
<path fill="#FFFFFF" d="M-29.2,36.9c-0.3-2.1-1-3.9-2.1-5.6c-0.1-0.2-0.2-0.3-0.3-0.5l-11.5-18l-11.6,18c-0.1,0.1-0.2,0.3-0.3,0.4
	c-1.1,1.7-1.8,3.6-2.1,5.7c-0.1,0.6-0.1,1.2-0.1,1.9c0,7.8,6.3,14,14.1,14c7.8,0,14-6.3,14-14C-29,38.2-29.1,37.6-29.2,36.9z"/>
<rect x="-47.6" y="43.4" fill="#083654" width="9" height="2.5"/>
<rect x="-47.6" y="38.9" fill="#083654" width="9" height="2.5"/>
<polygon fill="#083654" points="-38.6,32.7 -41.8,32.7 -41.8,36 -44.3,36 -44.3,32.7 -47.6,32.7 -47.6,30.3 -44.3,30.3 -44.3,27 
	-41.8,27 -41.8,30.3 -38.6,30.3 "/>
<path fill="#073654" d="M45.6,39.5c-0.4-3.3-1.6-6.4-3.3-9.1c-0.1-0.3-0.3-0.5-0.5-0.8L23.1,0.5L4.4,29.6c-0.2,0.2-0.3,0.5-0.5,0.7
	C2.2,33,1,36.1,0.6,39.5c-0.1,1-0.2,2-0.2,3c0,12.5,10.2,22.7,22.8,22.7c12.6,0,22.7-10.2,22.7-22.7C45.8,41.5,45.7,40.5,45.6,39.5z
	 M30.4,53.8H15.8v-4h14.6V53.8z M30.4,46.7H15.8v-4h14.6V46.7z M30.4,32.6h-5.3v5.3h-4v-5.3h-5.3v-4h5.3v-5.3h4v5.3h5.3V32.6z"/>
</svg>
