<?xml version="1.0" encoding="utf-8"?>
<!-- Generator: Adobe Illustrator 18.1.0, SVG Export Plug-In . SVG Version: 6.00 Build 0)  -->
<!DOCTYPE svg PUBLIC "-//W3C//DTD SVG 1.1//EN" "http://www.w3.org/Graphics/SVG/1.1/DTD/svg11.dtd">
<svg version="1.1" id="Layer_1" xmlns="http://www.w3.org/2000/svg" xmlns:xlink="http://www.w3.org/1999/xlink" x="0px" y="0px"
	 viewBox="0 0 257.3 47.9" enable-background="new 0 0 257.3 47.9" xml:space="preserve">
<g>
	<g>
		<g>
			<path fill="#0B3554" d="M21.7,10v15.6h-1.8V10h-5V8.4h11.8V10H21.7z"/>
			<path fill="#0B3554" d="M46,25.6v-7.9h-8.2v7.9H36V8.4h1.8v7.7H46V8.4h1.8v17.3H46z"/>
			<path fill="#0B3554" d="M58.9,25.6V8.4h1.8v17.3H58.9z"/>
			<path fill="#0B3554" d="M82.9,25.6l-9.2-13.9v13.9h-1.8V8.4h1.7l9.2,13.8V8.4h1.8v17.3H82.9z"/>
			<path fill="#0B3554" d="M106.4,25.6l-5.3-9.2l-3.6,4.4v4.8h-1.8V8.4h1.8v9.9l8.1-9.9h2.3l-5.4,6.7l6.2,10.6H106.4z"/>
			<path fill="#0B3554" d="M127.8,23.9c-1.2,1.2-2.9,1.7-4.7,1.7h-6.4V8.4h6.4c1.8,0,3.5,0.5,4.7,1.7c2,2,1.8,4.2,1.8,6.9
				C129.6,19.7,129.8,21.9,127.8,23.9z M124.9,13.1c-0.4-0.6-1-1-2-1H121v9.7h1.9c1.1,0,1.6-0.4,2-1c0.3-0.5,0.5-0.9,0.5-3.9
				C125.4,14.1,125.2,13.6,124.9,13.1z"/>
			<path fill="#0B3554" d="M148,25.6l-0.8-2.6h-5.3l-0.8,2.6h-4.4l6.3-17.3h3.3l6.3,17.3H148z M144.6,14.9l-1.6,4.6h3L144.6,14.9z"
				/>
			<path fill="#0B3554" d="M166.3,12.1v13.5H162V12.1h-4.2V8.4h12.7v3.8H166.3z"/>
			<path fill="#0B3554" d="M187.3,25.6l-0.8-2.6h-5.3l-0.8,2.6h-4.4l6.3-17.3h3.3l6.3,17.3H187.3z M183.9,14.9l-1.6,4.6h3
				L183.9,14.9z"/>
		</g>
		<g>
			<path fill="#0B3554" d="M124.8,39.6H124l-1.9-6.9l-1.9,6.9h-0.9L117,31h1l1.7,7l1.9-7h0.8l1.9,7l1.7-7h1L124.8,39.6z"/>
			<path fill="#0B3554" d="M141.7,38.8c-0.6,0.6-1.3,0.9-2.2,0.9c-0.9,0-1.6-0.3-2.2-0.9c-0.8-0.8-0.8-1.7-0.8-3.5
				c0-1.8,0-2.7,0.8-3.5c0.6-0.6,1.3-0.9,2.2-0.9c0.9,0,1.6,0.3,2.2,0.9c0.8,0.8,0.8,1.7,0.8,3.5C142.6,37.2,142.6,38,141.7,38.8z
				 M141,32.4c-0.4-0.4-0.9-0.6-1.5-0.6c-0.6,0-1.1,0.2-1.5,0.6c-0.5,0.6-0.6,1.1-0.6,2.9s0.1,2.4,0.6,2.9c0.4,0.4,0.9,0.6,1.5,0.6
				c0.6,0,1.1-0.2,1.5-0.6c0.5-0.6,0.6-1.1,0.6-2.9S141.6,32.9,141,32.4z"/>
			<path fill="#0B3554" d="M158.2,39.6l-2-3.8h-2.1v3.8h-0.9V31h3.3c1.5,0,2.6,0.9,2.6,2.4c0,1.3-0.8,2.1-1.9,2.3l2,3.9H158.2z
				 M156.5,31.8h-2.3V35h2.3c1,0,1.7-0.5,1.7-1.6C158.2,32.4,157.5,31.8,156.5,31.8z"/>
			<path fill="#0B3554" d="M175.1,39.6l-2.6-4.6l-1.8,2.2v2.4h-0.9V31h0.9v5l4-5h1.1l-2.7,3.3l3.1,5.3H175.1z"/>
			<path fill="#0B3554" d="M188.3,39.7c-1.3,0-2.1-0.3-3-1.1l0.6-0.6c0.7,0.7,1.4,0.9,2.4,0.9c1.3,0,2-0.6,2-1.6
				c0-0.4-0.1-0.8-0.4-1.1c-0.3-0.2-0.5-0.3-1.1-0.4l-1-0.2c-0.7-0.1-1.2-0.3-1.6-0.7c-0.4-0.4-0.7-0.9-0.7-1.6
				c0-1.5,1.1-2.4,2.8-2.4c1.1,0,1.8,0.3,2.6,0.9l-0.6,0.6c-0.5-0.5-1.1-0.7-2-0.7c-1.2,0-1.8,0.6-1.8,1.6c0,0.4,0.1,0.8,0.4,1
				c0.3,0.2,0.7,0.4,1.2,0.5L189,35c0.8,0.1,1.2,0.3,1.6,0.6c0.5,0.4,0.7,1,0.7,1.7C191.3,38.8,190.1,39.7,188.3,39.7z"/>
		</g>
	</g>
	<path fill="#0B3554" d="M242.3,27.8c-0.3-1.9-0.9-3.7-1.9-5.3c-0.1-0.1-0.2-0.3-0.3-0.4L229.3,5.2l-10.8,16.9
		c-0.1,0.1-0.2,0.3-0.3,0.4c-1,1.6-1.7,3.4-1.9,5.3c-0.1,0.6-0.1,1.2-0.1,1.8c0,7.3,5.9,13.2,13.2,13.2c7.3,0,13.2-5.9,13.2-13.2
		C242.5,28.9,242.4,28.4,242.3,27.8z M233.5,36.1h-8.4v-2.3h8.4V36.1z M233.5,32h-8.4v-2.3h8.4V32z M233.5,23.8h-3v3h-2.3v-3h-3.1
		v-2.3h3.1v-3h2.3v3h3V23.8z"/>
	<rect x="204.2" y="2.8" fill="#0B3554" width="0.9" height="42.4"/>
</g>
</svg>
